<?xml version="1.0" encoding="UTF-8" standalone="no"?>
<svg width="560px" height="560px" viewBox="0 0 560 560" version="1.1" xmlns="http://www.w3.org/2000/svg" xmlns:xlink="http://www.w3.org/1999/xlink" xmlns:sketch="http://www.bohemiancoding.com/sketch/ns">
    <!-- Generator: bin/sketchtool 1.2 (196) - http://www.bohemiancoding.com/sketch -->
    <title>geothermal</title>
    <desc>Created with bin/sketchtool.</desc>
    <defs></defs>
    <g id="Nouns" stroke="none" stroke-width="1" fill="none" fill-rule="evenodd" sketch:type="MSPage">
        <g id="geothermal" sketch:type="MSArtboardGroup" fill="#1A1918">
            <g id="Imported-Layers" sketch:type="MSLayerGroup" transform="translate(214.000000, 112.000000)">
                <path d="M74.4443774,368.118898 C32.618717,368.118898 -1.404,334.261039 -1.404,292.640976 C-1.404,269.653134 9.22166038,247.836945 27.1910943,233.589638 L27.1910943,52.6980472 C27.1910943,22.8999685 48.389434,-1.34154331 74.4443774,-1.34154331 C100.499321,-1.34154331 121.694717,22.8999685 121.694717,52.6980472 L121.694717,233.589638 C139.661208,247.836945 150.289811,269.656063 150.289811,292.640976 C150.289811,334.261039 116.264151,368.118898 74.4443774,368.118898 L74.4443774,368.118898 Z M74.4443774,12.2379213 C55.9127547,12.2379213 40.8337358,30.3868346 40.8337358,52.6980472 L40.8337358,236.958142 C40.8337358,239.137417 39.7829434,241.184882 38.0080755,242.461984 C21.8723774,254.061354 12.2356981,272.819528 12.2356981,292.640976 C12.2356981,326.774173 40.1449811,354.542362 74.4443774,354.542362 C108.74083,354.542362 136.64717,326.774173 136.64717,292.640976 C136.64717,272.819528 127.013434,254.061354 110.877736,242.461984 C109.102868,241.184882 108.052075,239.137417 108.052075,236.958142 L108.052075,52.6980472 C108.052075,30.3868346 92.976,12.2379213 74.4443774,12.2379213 L74.4443774,12.2379213 Z" id="Fill-1" sketch:type="MSShapeGroup"></path>
                <path d="M74.4443774,335.94822 C50.4468679,335.94822 30.9233208,316.519276 30.9233208,292.640976 C30.9233208,277.869354 38.376,264.263528 50.8648302,256.231843 L59.5213585,250.66063 L59.5213585,170.001071 L89.3644528,170.001071 L89.3644528,250.66063 L98.0209811,256.231843 C110.512755,264.263528 117.965434,277.869354 117.965434,292.640976 C117.965434,316.519276 98.4448302,335.94822 74.4443774,335.94822" id="Fill-2" sketch:type="MSShapeGroup"></path>
            </g>
        </g>
    </g>
</svg>