<?xml version="1.0" encoding="UTF-8" standalone="no"?>
<svg width="560px" height="560px" viewBox="0 0 560 560" version="1.1" xmlns="http://www.w3.org/2000/svg" xmlns:xlink="http://www.w3.org/1999/xlink" xmlns:sketch="http://www.bohemiancoding.com/sketch/ns">
    <!-- Generator: bin/sketchtool 1.2 (196) - http://www.bohemiancoding.com/sketch -->
    <title>lighting</title>
    <desc>Created with bin/sketchtool.</desc>
    <defs></defs>
    <g id="Nouns" stroke="none" stroke-width="1" fill="none" fill-rule="evenodd" sketch:type="MSPage">
        <g id="lighting" sketch:type="MSArtboardGroup" fill="#1A1918">
            <g id="Imported-Layers" sketch:type="MSLayerGroup" transform="translate(164.000000, 112.000000)">
                <path d="M163.919558,294.161834 L118.22576,294.161834 C117.996157,294.161834 117.769461,294.150256 117.545671,294.127101 C117.321882,294.150256 117.095186,294.161834 116.865583,294.161834 L71.1717845,294.161834 C70.2039664,294.161834 69.2448675,293.956333 68.3642403,293.551119 C67.7074028,293.250103 52.2513781,286.017043 51.4375972,270.578409 C49.5426502,234.308908 40.5619965,163.995685 26.527182,121.234085 C25.8587191,119.190652 26.2103887,116.9504 27.4775618,115.210876 C28.744735,113.471353 30.7704682,112.440953 32.929894,112.440953 L202.161449,112.440953 C204.317968,112.440953 206.346608,113.471353 207.613781,115.210876 C208.880954,116.9504 209.232624,119.190652 208.564161,121.234085 C194.529346,164.015946 185.548693,234.320485 183.653746,270.575515 C182.839965,286.014148 167.386846,293.250103 166.730009,293.551119 C165.849382,293.956333 164.890283,294.161834 163.919558,294.161834 L163.919558,294.161834 Z M72.8632862,280.746373 L116.865583,280.746373 C117.095186,280.746373 117.321882,280.757951 117.545671,280.781106 C117.769461,280.757951 117.996157,280.746373 118.22576,280.746373 L162.222244,280.746373 C164.579302,279.339703 169.900848,275.550957 170.200203,269.877969 C172.007959,235.258265 180.189364,170.099937 193.047102,125.859308 L42.0442403,125.859308 C54.9019788,170.082571 63.0833834,235.246688 64.8911396,269.880863 C65.1904947,275.574112 70.5004152,279.345492 72.8632862,280.746373 L72.8632862,280.746373 Z" id="Fill-1" sketch:type="MSShapeGroup"></path>
                <path d="M117.208534,368.350634 L117.205627,368.350634 L116.798737,368.347739 C97.116864,368.139344 79.0160512,352.21156 72.1483216,345.36924 C65.5741343,338.81636 66.8849028,289.814472 66.9081537,289.328216 C67.0738163,285.747865 70.0383039,282.928737 73.6363781,282.928737 L160.118039,282.928737 C163.736458,282.928737 166.709664,285.773915 166.846263,289.37742 C166.866608,289.854993 167.840239,338.191173 162.440221,344.845357 C155.063878,353.930822 136.262633,368.350634 117.208534,368.350634 L117.208534,368.350634 Z M82.4891519,336.6832 C87.8077915,341.829411 102.621511,354.781771 116.941148,354.932279 L117.205627,354.932279 C130.263905,354.932279 144.996246,344.526975 151.396051,337.085519 C152.735883,331.785906 153.462473,309.128683 153.474099,296.344198 L80.2628799,296.344198 C80.2686926,308.850822 81.0505035,331.18098 82.4891519,336.6832 L82.4891519,336.6832 Z" id="Fill-2" sketch:type="MSShapeGroup"></path>
                <path d="M73.4736219,319.745276 C71.1950353,319.745276 69.2187102,318.052063 68.9338869,315.739452 C68.6229064,313.238706 70.410318,310.960827 72.9214134,310.654022 L159.69371,300.037429 C162.19318,299.733519 164.495018,301.504881 164.800186,304.008521 C165.111166,306.509267 163.323754,308.787146 160.812659,309.093951 L74.0403622,319.710544 C73.8485424,319.733699 73.659629,319.745276 73.4736219,319.745276" id="Fill-3" sketch:type="MSShapeGroup"></path>
                <path d="M73.4736219,335.088396 C71.1950353,335.088396 69.2187102,333.395182 68.9338869,331.082571 C68.6229064,328.57893 70.410318,326.303946 72.9214134,325.997142 L159.69371,315.37476 C162.19318,315.062166 164.495018,316.845106 164.800186,319.345852 C165.111166,321.846598 163.323754,324.121582 160.812659,324.431281 L74.0403622,335.053663 C73.8485424,335.076818 73.659629,335.088396 73.4736219,335.088396" id="Fill-4" sketch:type="MSShapeGroup"></path>
                <path d="M203.422809,125.856413 L31.6714399,125.856413 C29.1952208,125.856413 26.9166343,124.504737 25.7424647,122.333951 C20.810371,113.22533 -3.58271201,66.7907596 0.262402827,47.0308135 C2.97694346,33.0972584 45.8341343,0.564404494 116.746422,0.153402247 C116.821988,0.150507865 116.900459,0.150507865 116.978931,0.150507865 L118.112412,0.150507865 C118.190883,0.150507865 118.266449,0.150507865 118.347827,0.153402247 C189.268834,0.564404494 232.117306,33.0972584 234.82894,47.0308135 C238.671148,66.7907596 214.283878,113.22533 209.351784,122.333951 C208.177615,124.504737 205.901935,125.856413 203.422809,125.856413 L203.422809,125.856413 Z M116.865583,112.440953 L199.368436,112.440953 C209.732518,92.6260135 223.584231,60.9672629 221.639876,49.777582 C218.835239,43.1726022 183.860097,13.7338427 117.545671,13.5659685 C51.2341519,13.7338427 16.2561042,43.1754966 13.4514664,49.777582 C11.5071113,60.9788404 25.3559187,92.6318022 35.7258127,112.440953 L116.865583,112.440953 L116.865583,112.440953 Z" id="Fill-5" sketch:type="MSShapeGroup"></path>
            </g>
        </g>
    </g>
</svg>