<?xml version="1.0" encoding="UTF-8" standalone="no"?>
<svg width="560px" height="560px" viewBox="0 0 560 560" version="1.1" xmlns="http://www.w3.org/2000/svg" xmlns:xlink="http://www.w3.org/1999/xlink" xmlns:sketch="http://www.bohemiancoding.com/sketch/ns">
    <!-- Generator: bin/sketchtool 1.2 (196) - http://www.bohemiancoding.com/sketch -->
    <title>meter</title>
    <desc>Created with bin/sketchtool.</desc>
    <defs></defs>
    <g id="Nouns" stroke="none" stroke-width="1" fill="none" fill-rule="evenodd" sketch:type="MSPage">
        <g id="meter" sketch:type="MSArtboardGroup" fill="#000000">
            <g id="Imported-Layers" sketch:type="MSLayerGroup" transform="translate(105.000000, 112.000000)">
                <path d="M183.403743,367.702674 C82.1185977,367.702674 -0.285666324,285.270728 -0.285666324,183.945119 C-0.285666324,82.6252864 82.1185977,0.196228873 183.403743,0.196228873 C284.688889,0.196228873 367.093153,82.6252864 367.093153,183.945119 C367.093153,285.270728 284.688889,367.702674 183.403743,367.702674 L183.403743,367.702674 Z M13.1004428,183.945119 C13.1004428,277.887728 89.4959724,354.314487 183.403743,354.314487 C277.311515,354.314487 353.709932,277.887728 353.709932,183.945119 C353.709932,90.0082864 277.311515,13.5844155 183.403743,13.5844155 C89.4959724,13.5844155 13.1004428,90.0082864 13.1004428,183.945119 Z" id="Fill-1" sketch:type="MSShapeGroup"></path>
                <path d="M77.6228747,186.472554 C59.5533599,186.472554 44.8563591,171.772989 44.8563591,153.690994 C44.8563591,135.608999 59.5533599,120.900769 77.6228747,120.900769 C95.695277,120.900769 110.40094,135.608999 110.40094,153.690994 C110.40094,171.772989 95.695277,186.472554 77.6228747,186.472554 L77.6228747,186.472554 Z M53.2963067,153.690994 C53.2963067,167.110954 64.2107788,178.029475 77.6228747,178.029475 C91.0378581,178.029475 101.955218,167.110954 101.955218,153.690994 C101.955218,140.262369 91.0378581,129.346736 77.6228747,129.346736 C64.2107788,129.346736 53.2963067,140.262369 53.2963067,153.690994 Z" id="Fill-2" sketch:type="MSShapeGroup"></path>
                <path d="M148.145379,186.472554 C130.075864,186.472554 115.370201,171.772989 115.370201,153.690994 C115.370201,135.608999 130.075864,120.900769 148.145379,120.900769 C166.217781,120.900769 180.917669,135.608999 180.917669,153.690994 C180.917669,171.772989 166.217781,186.472554 148.145379,186.472554 L148.145379,186.472554 Z M148.145379,129.346736 C134.727508,129.346736 123.813036,140.262369 123.813036,153.690994 C123.813036,167.110954 134.727508,178.029475 148.145379,178.029475 C161.56325,178.029475 172.477722,167.110954 172.477722,153.690994 C172.477722,140.262369 161.56325,129.346736 148.145379,129.346736 L148.145379,129.346736 Z" id="Fill-3" sketch:type="MSShapeGroup"></path>
                <path d="M218.67077,186.472554 C200.601256,186.472554 185.895593,171.772989 185.895593,153.690994 C185.895593,135.608999 200.601256,120.900769 218.67077,120.900769 C236.737398,120.900769 251.437286,135.608999 251.437286,153.690994 C251.437286,171.772989 236.737398,186.472554 218.67077,186.472554 L218.67077,186.472554 Z M218.67077,129.346736 C205.255787,129.346736 194.33554,140.262369 194.33554,153.690994 C194.33554,167.110954 205.255787,178.029475 218.67077,178.029475 C232.082866,178.029475 243.000226,167.110954 243.000226,153.690994 C243.000226,140.262369 232.082866,129.346736 218.67077,129.346736 L218.67077,129.346736 Z" id="Fill-4" sketch:type="MSShapeGroup"></path>
                <path d="M289.181725,186.472554 C271.115097,186.472554 256.415209,171.772989 256.415209,153.690994 C256.415209,135.608999 271.115097,120.900769 289.181725,120.900769 C307.254127,120.900769 321.954015,135.608999 321.954015,153.690994 C321.954015,171.772989 307.254127,186.472554 289.181725,186.472554 L289.181725,186.472554 Z M289.181725,129.346736 C275.766741,129.346736 264.855157,140.262369 264.855157,153.690994 C264.855157,167.110954 275.766741,178.029475 289.181725,178.029475 C302.599596,178.029475 313.51118,167.110954 313.51118,153.690994 C313.51118,140.262369 302.599596,129.346736 289.181725,129.346736 L289.181725,129.346736 Z" id="Fill-5" sketch:type="MSShapeGroup"></path>
                <path d="M261.658776,256.148894 L105.151599,256.148894 C100.098602,256.148894 95.9984568,252.047228 95.9984568,246.992357 C95.9984568,241.934597 100.098602,237.835819 105.151599,237.835819 L261.658776,237.835819 C266.714659,237.835819 270.811918,241.934597 270.811918,246.992357 C270.811918,252.047228 266.714659,256.148894 261.658776,256.148894" id="Fill-6" sketch:type="MSShapeGroup"></path>
            </g>
        </g>
    </g>
</svg>