<?xml version="1.0" encoding="UTF-8" standalone="no"?>
<svg width="560px" height="560px" viewBox="0 0 560 560" version="1.1" xmlns="http://www.w3.org/2000/svg" xmlns:xlink="http://www.w3.org/1999/xlink" xmlns:sketch="http://www.bohemiancoding.com/sketch/ns">
    <!-- Generator: bin/sketchtool 1.2 (196) - http://www.bohemiancoding.com/sketch -->
    <title>meterGas</title>
    <desc>Created with bin/sketchtool.</desc>
    <defs></defs>
    <g id="Nouns" stroke="none" stroke-width="1" fill="none" fill-rule="evenodd" sketch:type="MSPage">
        <g id="meterGas" sketch:type="MSArtboardGroup" fill="#1A1918">
            <g id="Imported-Layers" sketch:type="MSLayerGroup" transform="translate(103.000000, 112.000000)">
                <path d="M127.773406,103.19494 C119.133452,103.19494 112.147769,110.174925 112.147769,118.763975 C112.147769,127.346394 119.133452,134.321958 127.773406,134.321958 C136.404477,134.321958 143.399042,127.346394 143.399042,118.763975 C143.399042,110.174925 136.404477,103.19494 127.773406,103.19494 L127.773406,103.19494 Z M128.739322,120.949917 C127.733437,121.652778 126.332303,121.418491 125.612862,120.439348 C124.875657,119.424841 125.093266,118.043432 126.108033,117.322889 C127.113918,116.593505 134.49485,114.03845 134.49485,114.03845 C134.49485,114.03845 129.734105,120.220533 128.739322,120.949917 L128.739322,120.949917 Z" id="Fill-1" sketch:type="MSShapeGroup"></path>
                <path d="M160.94985,103.19494 C152.345424,103.19494 145.319772,110.174925 145.319772,118.763975 C145.319772,127.346394 152.345424,134.321958 160.94985,134.321958 C169.607567,134.321958 176.597692,127.346394 176.597692,118.763975 C176.597692,110.174925 169.607567,103.19494 160.94985,103.19494 L160.94985,103.19494 Z M162.446465,120.534389 C161.57603,121.40744 160.148251,121.385337 159.284477,120.507866 C158.414042,119.623764 154.774648,112.716718 154.774648,112.716718 C154.774648,112.716718 161.618219,116.502884 162.490875,117.386986 C163.343546,118.255616 163.332443,119.67902 162.446465,120.534389 L162.446465,120.534389 Z" id="Fill-2" sketch:type="MSShapeGroup"></path>
                <path d="M193.837629,103.19494 C185.228763,103.19494 178.220875,110.174925 178.220875,118.763975 C178.220875,127.346394 185.228763,134.321958 193.837629,134.321958 C202.484244,134.321958 209.48103,127.346394 209.48103,118.763975 C209.48103,110.174925 202.484244,103.19494 193.837629,103.19494 L193.837629,103.19494 Z M195.021154,120.932235 C193.941993,121.506901 192.576387,121.06485 191.999058,119.968564 C191.435052,118.881118 189.973965,111.218165 189.973965,111.218165 C189.973965,111.218165 195.407521,116.81674 195.989291,117.919658 C196.559959,119.007103 196.126962,120.353148 195.021154,120.932235 L195.021154,120.932235 Z" id="Fill-3" sketch:type="MSShapeGroup"></path>
                <path d="M226.807567,103.19494 C218.185378,103.19494 211.168608,110.174925 211.168608,118.763975 C211.168608,127.346394 218.185378,134.321958 226.807567,134.321958 C235.436418,134.321958 242.424322,127.346394 242.424322,118.763975 C242.424322,110.174925 235.436418,103.19494 226.807567,103.19494 L226.807567,103.19494 Z M229.014741,118.936375 C228.810455,120.158646 227.651356,120.97865 226.438965,120.781937 C225.215471,120.589645 224.396108,119.420421 224.591511,118.19815 C224.793577,116.98693 228.233126,109.993684 228.233126,109.993684 C228.233126,109.993684 229.230129,117.725155 229.014741,118.936375 L229.014741,118.936375 Z" id="Fill-4" sketch:type="MSShapeGroup"></path>
                <path d="M25.1264959,314.868828 C25.1264959,344.395621 49.1744772,368.337101 78.8447567,368.337101 L275.818375,368.337101 C305.486434,368.337101 329.534415,344.395621 329.534415,314.868828 L329.534415,220.864483 L25.1264959,220.864483 L25.1264959,314.868828" id="Fill-5" sketch:type="MSShapeGroup"></path>
                <path d="M329.534415,91.0252777 C329.534415,62.4886785 307.082971,39.1793318 278.802723,37.636574 L278.802723,-0.300238633 L226.576636,-0.300238633 L226.576636,37.5503741 L128.088716,37.5503741 L128.088716,-0.300238633 L75.8604089,-0.300238633 L75.8604089,37.636574 C47.5801605,39.1793318 25.1264959,62.4886785 25.1264959,91.0252777 L25.1264959,190.860275 L-0.242681159,190.860275 L-0.242681159,215.0272 L25.1264959,215.0272 L329.534415,214.927739 L354.905813,215.0272 L354.905813,190.860275 L329.534415,190.860275 L329.534415,91.0252777 Z M74.0862319,111.78399 C76.3600207,108.072973 81.1940424,106.910379 84.9022723,109.1781 C88.6193841,111.425929 89.7895859,116.244284 87.5268996,119.946461 C85.2597723,123.646428 80.405766,124.800181 76.6975362,122.554562 C72.9848654,120.306733 71.8279865,115.483957 74.0862319,111.78399 L74.0862319,111.78399 Z M79.399881,178.204356 C78.6893219,178.317079 77.9632195,178.41654 77.2215735,178.41654 C76.2689803,178.41654 75.3519151,178.317079 74.4637164,178.1491 C67.8466356,176.860521 62.8371946,171.080705 62.8371946,164.113982 C62.8371946,161.174343 63.7120704,158.462361 65.2442133,156.170326 C66.1857039,154.757974 67.4158592,153.562226 68.7859058,152.549929 C71.164058,150.839192 74.0618064,149.78269 77.2215735,149.78269 C85.1620704,149.78269 91.6126139,156.196849 91.6126139,164.113982 C91.6126139,171.275207 86.3122878,177.150064 79.399881,178.204356 L79.399881,178.204356 Z M249.041403,176.977665 L105.619508,176.977665 C105.619508,176.977665 92.2054865,160.595256 92.2054865,131.30054 C92.2054865,99.4905534 105.619508,85.6278355 105.619508,85.6278355 L249.041403,85.6278355 C249.041403,85.6278355 262.455424,104.527724 262.455424,131.30054 C262.455424,159.335411 249.041403,176.977665 249.041403,176.977665 L249.041403,176.977665 Z M283.727785,164.502987 C283.667831,165.771673 283.408033,167.040359 282.697474,168.194112 C282.115704,169.13347 281.365176,169.893798 280.514726,170.499408 C278.016667,172.238878 274.625968,172.479796 271.879213,170.791162 C268.15544,168.552173 266.987459,163.702875 269.261247,160.02059 C271.515052,156.325044 276.373499,155.151399 280.081729,157.4147 C282.644182,158.968509 283.876558,161.749009 283.727785,164.502987 L283.727785,164.502987 Z M289.123592,110.311961 C288.450782,111.852508 287.498188,113.233917 286.356853,114.423035 C283.754431,117.146068 280.063965,118.872277 275.978251,118.872277 C268.028872,118.872277 261.580549,112.47138 261.580549,104.554247 C261.580549,97.8284418 266.259136,92.2276562 272.547583,90.6871087 C273.648949,90.4196678 274.790285,90.2251654 275.978251,90.2251654 C276.51117,90.2251654 276.993018,90.3246269 277.510393,90.386514 C283.190424,90.9810726 287.844586,94.8313363 289.578794,100.06743 C290.047319,101.479783 290.36485,102.973915 290.36485,104.554247 C290.36485,106.607574 289.91853,108.545967 289.123592,110.311961 L289.123592,110.311961 Z" id="Fill-6" sketch:type="MSShapeGroup"></path>
                <path d="M139.013561,150.005926 L214.181822,150.005926 L214.181822,161.1434 L139.013561,161.1434 L139.013561,150.005926 Z" id="Fill-7" sketch:type="MSShapeGroup"></path>
            </g>
        </g>
    </g>
</svg>