<?xml version="1.0" encoding="UTF-8" standalone="no"?>
<svg width="560px" height="560px" viewBox="0 0 560 560" version="1.1" xmlns="http://www.w3.org/2000/svg" xmlns:xlink="http://www.w3.org/1999/xlink" xmlns:sketch="http://www.bohemiancoding.com/sketch/ns">
    <!-- Generator: bin/sketchtool 1.2 (196) - http://www.bohemiancoding.com/sketch -->
    <title>naturalGas</title>
    <desc>Created with bin/sketchtool.</desc>
    <defs></defs>
    <g id="Nouns" stroke="none" stroke-width="1" fill="none" fill-rule="evenodd" sketch:type="MSPage">
        <g id="naturalGas" sketch:type="MSArtboardGroup">
            <g id="Imported-Layers" sketch:type="MSLayerGroup" transform="translate(147.000000, 105.000000)">
                <path d="M125.565512,374.525947 C87.8069756,376.316106 19.1265366,349.92623 2.58295122,286.688354 C-16.7073171,213.032283 36.2147805,151.790867 54.6295854,139.772177 C39.9304878,154.502726 20.4063171,200.168425 36.8195854,216.180035 C31.4932927,195.233841 71.3101707,156.655575 82.0028537,135.562973 C92.8525854,117.089062 103.969634,64.272708 88.0375366,51.9512212 C101.316512,56.576354 119.176634,67.7465487 125.101049,85.5549735 C128.402415,95.4075044 129.348049,103.955681 127.43339,110.723681 C131.346244,117.029168 157.122293,109.392708 153.339756,68.5185133 C150.225512,34.8016283 161.365951,9.00736283 172.676805,0.755327434 C165.88361,10.9173097 163.581341,30.1332389 173.842976,52.8596106 C181.444805,69.6564956 205.560146,101.543292 213.659854,120.599504 C219.621024,134.584708 227.089195,161.736566 222.925732,176.903009 C234.216537,191.011327 255.625293,169.582655 254.368902,157.820177 C262.014171,173.003257 267.591073,189.830088 269.415512,209.065982 C275.981488,278.296566 243.890073,343.866973 162.699195,375.557451 C180.509195,365.724885 168.931024,327.053451 126.868683,332.740035 C90.8543902,337.618053 107.501561,368.037451 125.565512,374.525947" id="Fill-1" fill="#1A1918" sketch:type="MSShapeGroup"></path>
                <path d="M202.729927,317.044531 C203.531878,284.059681 181.444805,269.512142 193.564293,255.586832 C169.599317,267.046513 195.174878,304.520071 177.294707,308.183575 C165.903659,310.552708 149.467,297.984991 159.060341,267.655434 C161.713463,259.200425 169.692878,253.853239 171.794659,247.66754 C174.060171,241.152425 171.794659,230.940531 165.44922,225.96269 C169.014561,232.148389 166.785805,238.586973 163.304,243.218761 C159.060341,248.785558 153.536902,252.059752 146.586659,258.152283 C137.858756,265.795398 137.193805,276.726018 127.991415,273.491752 C121.295122,271.122619 114.221244,259.656283 114.648951,247.434619 C115.260439,232.620885 122.621683,223.623504 123.968293,212.459965 C125.101049,202.733876 121.064561,195.080779 115.557829,191.763327 C119.574268,196.591434 119.41722,204.387611 116.169317,212.187115 C110.990049,224.661664 93.3036829,239.086088 87.8069756,257.746336 C82.885,274.546549 93.3872195,295.722336 86.5706341,299.565522 C69.8566341,290.315257 69.8098537,263.882124 74.4244146,251.763611 C68.6202927,259.413381 59.0269512,278.539469 60.2064878,291.323469 C61.3225366,303.355469 72.9073902,313.287858 75.8077805,330.673699 C78.6714146,347.726796 99.4553171,367.98754 125.047585,374.545912 C125.261439,374.525947 125.405122,374.525947 125.565512,374.525947 C107.501561,368.037451 100.280659,343.268035 128.896951,340.270018 C160.430341,336.985841 174.046805,366.982655 162.699195,375.557451 C184.265,363.249274 202.272146,337.055717 202.729927,317.044531" id="Fill-2" fill="#FFFFFF" sketch:type="MSShapeGroup"></path>
            </g>
        </g>
    </g>
</svg>