<?xml version="1.0" encoding="UTF-8" standalone="no"?>
<svg width="560px" height="560px" viewBox="0 0 560 560" version="1.1" xmlns="http://www.w3.org/2000/svg" xmlns:xlink="http://www.w3.org/1999/xlink" xmlns:sketch="http://www.bohemiancoding.com/sketch/ns">
    <!-- Generator: bin/sketchtool 1.2 (196) - http://www.bohemiancoding.com/sketch -->
    <title>settings</title>
    <desc>Created with bin/sketchtool.</desc>
    <defs></defs>
    <g id="Nouns" stroke="none" stroke-width="1" fill="none" fill-rule="evenodd" sketch:type="MSPage">
        <g id="settings" sketch:type="MSArtboardGroup" fill="#000000">
            <g id="ic_settings_48px" sketch:type="MSLayerGroup" transform="translate(100.000000, 112.000000)">
                <path d="M317.804631,201.856944 C318.543821,195.996204 319.098214,190.043889 319.098214,184 C319.098214,177.956111 318.543821,172.003796 317.804631,166.143056 L356.889327,135.832037 C360.400482,133.084815 361.416869,128.139815 359.106899,124.110556 L322.147375,60.6497222 C319.837405,56.712037 315.032667,55.0637037 310.87472,56.712037 L264.860113,75.1184259 C255.343036,67.8840741 244.90197,61.7486111 233.629315,57.0783333 L226.699405,8.54407407 C225.867815,4.24009259 222.079464,0.851851852 217.459524,0.851851852 L143.540476,0.851851852 C138.920536,0.851851852 135.132185,4.24009259 134.392994,8.54407407 L127.463083,57.0783333 C116.190429,61.7486111 105.749363,67.7925 96.2322857,75.1184259 L50.2176786,56.712037 C46.0597321,55.1552778 41.254994,56.712037 38.9450238,60.6497222 L1.9855,124.110556 C-0.324470238,128.048241 0.691916667,132.993241 4.20307143,135.832037 L43.195369,166.143056 C42.4561786,172.003796 41.9017857,177.956111 41.9017857,184 C41.9017857,190.043889 42.4561786,195.996204 43.195369,201.856944 L4.20307143,232.167963 C0.691916667,234.915185 -0.324470238,239.860185 1.9855,243.889444 L38.9450238,307.350278 C41.254994,311.287963 46.0597321,312.936296 50.2176786,311.287963 L96.2322857,292.881574 C105.749363,300.115926 116.190429,306.251389 127.463083,310.921667 L134.392994,359.455926 C135.132185,363.759907 138.920536,367.148148 143.540476,367.148148 L217.459524,367.148148 C222.079464,367.148148 225.867815,363.759907 226.607006,359.455926 L233.536917,310.921667 C244.809571,306.251389 255.250637,300.2075 264.767714,292.881574 L310.782321,311.287963 C314.940268,312.844722 319.745006,311.287963 322.054976,307.350278 L359.0145,243.889444 C361.32447,239.951759 360.308083,235.006759 356.796929,232.167963 L317.804631,201.856944 L317.804631,201.856944 Z M180.5,248.101852 C144.741661,248.101852 115.820833,219.439167 115.820833,184 C115.820833,148.560833 144.741661,119.898148 180.5,119.898148 C216.258339,119.898148 245.179167,148.560833 245.179167,184 C245.179167,219.439167 216.258339,248.101852 180.5,248.101852 L180.5,248.101852 Z" id="Shape" sketch:type="MSShapeGroup"></path>
            </g>
        </g>
    </g>
</svg>