<svg width="560" height="560" viewBox="0 0 560 560" xmlns="http://www.w3.org/2000/svg"><title>solar</title><desc>Created with bin/sketchtool.</desc><g fill="none" fill-rule="evenodd"><g fill="#1A1918"><g><path d="M156.75 474.26c-.347 0-.697-.045-1.048-.147-2.024-.576-3.196-2.68-2.618-4.698l19.055-66.568c.58-2.017 2.687-3.195 4.708-2.61 2.025.575 3.2 2.678 2.62 4.696l-19.055 66.57c-.48 1.668-2.005 2.757-3.662 2.757"/><path d="M281.145 304.825c-36.694 0-66.547-29.77-66.547-66.358 0-36.59 29.853-66.36 66.547-66.36 36.693 0 66.545 29.77 66.545 66.36s-29.852 66.358-66.545 66.358zm0-113.83c-26.25 0-47.608 21.296-47.608 47.472 0 26.176 21.357 47.472 47.608 47.472 26.25 0 47.605-21.297 47.605-47.473s-21.355-47.473-47.605-47.473z"/><path d="M281.145 162.897c-5.23 0-9.47-4.23-9.47-9.443v-34.01c0-5.214 4.24-9.443 9.47-9.443s9.47 4.23 9.47 9.444v34.01c0 5.214-4.24 9.443-9.47 9.443"/><path d="M281.145 366.94c-5.23 0-9.47-4.23-9.47-9.444v-34.01c0-5.214 4.24-9.442 9.47-9.442s9.47 4.228 9.47 9.443v34.01c0 5.214-4.24 9.442-9.47 9.442"/><path d="M220.86 187.798c-2.427 0-4.85-.923-6.698-2.767l-24.115-24.053c-3.696-3.687-3.696-9.667.002-13.352 3.702-3.69 9.697-3.685 13.392 0l24.115 24.054c3.696 3.686 3.696 9.666-.002 13.35-1.85 1.845-4.273 2.768-6.695 2.768"/><path d="M365.543 332.076c-2.424 0-4.85-.923-6.698-2.767l-24.11-24.045c-3.696-3.688-3.696-9.668.002-13.355 3.703-3.688 9.697-3.688 13.395 0l24.108 24.046c3.698 3.688 3.698 9.668-.002 13.355-1.85 1.843-4.27 2.766-6.695 2.766"/><path d="M195.885 247.915h-.002l-34.1-.005c-5.23-.002-9.47-4.23-9.47-9.446 0-5.214 4.24-9.44 9.47-9.44h.004l34.1.005c5.23 0 9.468 4.227 9.468 9.442 0 5.214-4.24 9.443-9.47 9.443"/><path d="M400.506 247.91h-34.104c-5.23 0-9.47-4.228-9.47-9.443s4.24-9.443 9.47-9.443h34.104c5.23 0 9.47 4.228 9.47 9.443s-4.24 9.443-9.47 9.443"/><path d="M196.745 332.076c-2.422 0-4.85-.923-6.696-2.767-3.7-3.69-3.7-9.668 0-13.356l24.114-24.042c3.698-3.687 9.695-3.687 13.39 0 3.7 3.688 3.7 9.667 0 13.355L203.44 329.31c-1.85 1.843-4.27 2.766-6.695 2.766"/><path d="M341.428 187.798c-2.422 0-4.844-.92-6.695-2.767-3.698-3.684-3.698-9.664-.003-13.35l24.115-24.055c3.698-3.688 9.695-3.69 13.393 0 3.7 3.685 3.7 9.665.002 13.352l-24.112 24.054c-1.852 1.845-4.276 2.768-6.7 2.768"/><path d="M468.04 479.902H94.53c-3.304 0-6.367-1.717-8.086-4.528-1.72-2.812-1.844-6.315-.33-9.243l34.412-66.567c1.624-3.142 4.875-5.116 8.42-5.116h304.68c3.545 0 6.793 1.974 8.42 5.116l34.413 66.568c1.51 2.93 1.386 6.432-.335 9.244-1.72 2.81-4.782 4.528-8.085 4.528zm-357.973-18.886h342.438l-24.653-47.683H134.717l-24.65 47.683z"/><path d="M281.285 471.533c-2.103 0-3.812-1.702-3.812-3.8V403.89c0-2.1 1.71-3.8 3.812-3.8 2.104 0 3.81 1.7 3.81 3.8v63.842c0 2.1-1.706 3.8-3.81 3.8"/><path d="M222.017 474.26c-.173 0-.35-.012-.528-.036-2.086-.288-3.542-2.207-3.254-4.287l9.255-66.57c.287-2.08 2.217-3.533 4.298-3.242 2.086.288 3.542 2.207 3.253 4.287l-9.25 66.568c-.266 1.903-1.9 3.28-3.773 3.28"/><path d="M342.207 474.26c-1.873 0-3.51-1.377-3.772-3.28l-9.252-66.568c-.29-2.08 1.167-4 3.253-4.287 2.076-.288 4.008 1.163 4.297 3.243l9.252 66.57c.29 2.08-1.167 3.998-3.253 4.286-.175.024-.353.036-.525.036"/><path d="M407.475 474.26c-1.657 0-3.184-1.086-3.662-2.758l-19.06-66.57c-.578-2.017.594-4.12 2.618-4.696 2.035-.58 4.134.592 4.712 2.61l19.06 66.57c.578 2.018-.594 4.12-2.618 4.697-.35.102-.703.147-1.05.147"/></g></g></g></svg>