<?xml version="1.0" encoding="UTF-8" standalone="no"?>
<svg width="560px" height="560px" viewBox="0 0 560 560" version="1.1" xmlns="http://www.w3.org/2000/svg" xmlns:xlink="http://www.w3.org/1999/xlink" xmlns:sketch="http://www.bohemiancoding.com/sketch/ns">
    <!-- Generator: bin/sketchtool 1.2 (196) - http://www.bohemiancoding.com/sketch -->
    <title>solar</title>
    <desc>Created with bin/sketchtool.</desc>
    <defs></defs>
    <g id="Nouns" stroke="none" stroke-width="1" fill="none" fill-rule="evenodd" sketch:type="MSPage">
        <g id="solar" sketch:type="MSArtboardGroup" fill="#1A1918">
            <g id="Imported-Layers" sketch:type="MSLayerGroup" transform="translate(85.000000, 111.000000)">
                <path d="M71.7509096,363.259506 C71.4028916,363.259506 71.052506,363.214652 70.7021205,363.113139 C68.6779337,362.537114 67.5060361,360.433677 68.0836988,358.415228 L87.1394639,291.846532 C87.719494,289.830443 89.8265422,288.652424 91.8483614,289.235532 C93.8725482,289.811557 95.0468133,291.914994 94.4667831,293.933443 L75.4133855,360.502139 C74.9327892,362.171196 73.4081386,363.259506 71.7509096,363.259506" id="Fill-1" sketch:type="MSShapeGroup"></path>
                <path d="M196.14488,193.825437 C159.451464,193.825437 129.597669,164.056259 129.597669,127.466848 C129.597669,90.8774367 159.451464,61.1082595 196.14488,61.1082595 C232.838295,61.1082595 262.689723,90.8774367 262.689723,127.466848 C262.689723,164.056259 232.838295,193.825437 196.14488,193.825437 L196.14488,193.825437 Z M196.14488,79.9943354 C169.894373,79.9943354 148.537428,101.290747 148.537428,127.466848 C148.537428,153.642949 169.894373,174.939361 196.14488,174.939361 C222.395386,174.939361 243.749964,153.642949 243.749964,127.466848 C243.749964,101.290747 222.395386,79.9943354 196.14488,79.9943354 L196.14488,79.9943354 Z" id="Fill-2" sketch:type="MSShapeGroup"></path>
                <path d="M196.14488,51.8965759 C190.915139,51.8965759 186.675,47.6684557 186.675,42.453538 L186.675,8.44443671 C186.675,3.22951899 190.915139,-0.998601266 196.14488,-0.998601266 C201.37462,-0.998601266 205.614759,3.22951899 205.614759,8.44443671 L205.614759,42.453538 C205.614759,47.6684557 201.37462,51.8965759 196.14488,51.8965759" id="Fill-3" sketch:type="MSShapeGroup"></path>
                <path d="M196.14488,255.93938 C190.915139,255.93938 186.675,251.711259 186.675,246.496342 L186.675,212.487241 C186.675,207.272323 190.915139,203.044203 196.14488,203.044203 C201.37462,203.044203 205.614759,207.272323 205.614759,212.487241 L205.614759,246.496342 C205.614759,251.711259 201.37462,255.93938 196.14488,255.93938" id="Fill-4" sketch:type="MSShapeGroup"></path>
                <path d="M135.859627,76.7978671 C133.43297,76.7978671 131.011048,75.8748101 129.162054,74.031057 L105.047006,49.9772785 C101.351386,46.2897722 101.351386,40.3099684 105.049373,36.6248228 C108.752096,32.9349557 114.74653,32.9396772 118.442151,36.6248228 L142.557199,60.6786013 C146.252819,64.3661076 146.252819,70.3459114 142.554831,74.031057 C140.705837,75.8748101 138.281548,76.7978671 135.859627,76.7978671" id="Fill-5" sketch:type="MSShapeGroup"></path>
                <path d="M280.542813,221.075684 C278.118524,221.075684 275.694235,220.152627 273.845241,218.308873 L249.734928,194.264538 C246.039307,190.577032 246.039307,184.597228 249.737295,180.909722 C253.440018,177.222215 259.434452,177.222215 263.13244,180.909722 L287.240386,204.956418 C290.938373,208.643924 290.938373,214.623728 287.238018,218.311234 C285.389024,220.152627 282.967102,221.075684 280.542813,221.075684" id="Fill-6" sketch:type="MSShapeGroup"></path>
                <path d="M110.885187,136.914608 C110.885187,136.914608 110.885187,136.914608 110.882819,136.914608 L76.7817831,136.909886 C71.5520422,136.907525 67.3142711,132.679405 67.3142711,127.464487 C67.3142711,122.24957 71.5544096,118.02381 76.7841506,118.02381 L76.7865181,118.02381 L110.887554,118.028532 C116.117295,118.028532 120.355066,122.256652 120.355066,127.47157 C120.355066,132.686487 116.114928,136.914608 110.885187,136.914608" id="Fill-7" sketch:type="MSShapeGroup"></path>
                <path d="M315.505608,136.909886 L281.402205,136.909886 C276.172464,136.909886 271.932325,132.681766 271.932325,127.466848 C271.932325,122.25193 276.172464,118.02381 281.402205,118.02381 L315.505608,118.02381 C320.735349,118.02381 324.975488,122.25193 324.975488,127.466848 C324.975488,132.681766 320.735349,136.909886 315.505608,136.909886" id="Fill-8" sketch:type="MSShapeGroup"></path>
                <path d="M111.744578,221.075684 C109.322657,221.075684 106.896,220.152627 105.049373,218.308873 C101.351386,214.621367 101.351386,208.641563 105.049373,204.954057 L129.164422,180.912082 C132.86241,177.224576 138.859211,177.224576 142.554831,180.912082 C146.252819,184.599589 146.252819,190.579392 142.554831,194.266899 L118.439783,218.311234 C116.590789,220.152627 114.168867,221.075684 111.744578,221.075684" id="Fill-9" sketch:type="MSShapeGroup"></path>
                <path d="M256.427765,76.7978671 C254.005843,76.7978671 251.583922,75.8771709 249.73256,74.031057 C246.034572,70.3459114 246.034572,64.3661076 249.730193,60.6786013 L273.845241,36.6248228 C277.543229,32.9373165 283.54003,32.9349557 287.238018,36.6248228 C290.938373,40.3099684 290.938373,46.2897722 287.240386,49.9772785 L263.127705,74.031057 C261.276343,75.8748101 258.852054,76.7978671 256.427765,76.7978671" id="Fill-10" sketch:type="MSShapeGroup"></path>
                <path d="M383.040054,368.901722 L9.52906627,368.901722 C6.22644578,368.901722 3.16293976,367.185449 1.44415663,364.373785 C-0.274626506,361.56212 -0.40010241,358.058753 1.11271084,355.131411 L35.526253,288.562715 C37.1503373,285.420544 40.4008735,283.446949 43.9449759,283.446949 L348.626512,283.446949 C352.170614,283.446949 355.418783,285.420544 357.045235,288.562715 L391.458777,355.131411 C392.969223,358.058753 392.846114,361.56212 391.124964,364.373785 C389.406181,367.185449 386.342675,368.901722 383.040054,368.901722 L383.040054,368.901722 Z M25.0667711,350.015646 L367.504717,350.015646 L342.852253,302.333025 L49.7168675,302.333025 L25.0667711,350.015646 L25.0667711,350.015646 Z" id="Fill-11" sketch:type="MSShapeGroup"></path>
                <path d="M196.28456,360.532829 C194.182247,360.532829 192.472934,358.830722 192.472934,356.732006 L192.472934,292.889987 C192.472934,290.791272 194.182247,289.089165 196.28456,289.089165 C198.389241,289.089165 200.096187,290.791272 200.096187,292.889987 L200.096187,356.732006 C200.096187,358.830722 198.389241,360.532829 196.28456,360.532829" id="Fill-12" sketch:type="MSShapeGroup"></path>
                <path d="M137.017319,363.259506 C136.844494,363.259506 136.666934,363.247703 136.489373,363.224095 C134.403633,362.936082 132.947639,361.016785 133.23647,358.936956 L142.49091,292.368259 C142.777373,290.28843 144.706861,288.834203 146.787867,289.124576 C148.873608,289.412589 150.329602,291.331886 150.040771,293.411715 L140.788699,359.980411 C140.523542,361.883184 138.889988,363.259506 137.017319,363.259506" id="Fill-13" sketch:type="MSShapeGroup"></path>
                <path d="M257.206663,363.259506 C255.333994,363.259506 253.698072,361.883184 253.435283,359.980411 L244.183211,293.411715 C243.89438,291.331886 245.350373,289.412589 247.436114,289.124576 C249.512386,288.836563 251.444241,290.28843 251.733072,292.368259 L260.985145,358.936956 C261.273976,361.016785 259.817982,362.936082 257.732241,363.224095 C257.557048,363.247703 257.379488,363.259506 257.206663,363.259506" id="Fill-14" sketch:type="MSShapeGroup"></path>
                <path d="M322.47544,363.259506 C320.818211,363.259506 319.291193,362.173557 318.812964,360.502139 L299.752464,293.933443 C299.174801,291.914994 300.346699,289.811557 302.370886,289.235532 C304.404542,288.657146 306.504488,289.828082 307.082151,291.846532 L326.142651,358.415228 C326.720313,360.433677 325.548416,362.537114 323.524229,363.113139 C323.173843,363.214652 322.82109,363.259506 322.47544,363.259506" id="Fill-15" sketch:type="MSShapeGroup"></path>
            </g>
        </g>
    </g>
</svg>