<?xml version="1.0" encoding="UTF-8" standalone="no"?>
<svg width="560px" height="560px" viewBox="0 0 560 560" version="1.1" xmlns="http://www.w3.org/2000/svg" xmlns:xlink="http://www.w3.org/1999/xlink" xmlns:sketch="http://www.bohemiancoding.com/sketch/ns">
    <!-- Generator: bin/sketchtool 1.2 (196) - http://www.bohemiancoding.com/sketch -->
    <title>water</title>
    <desc>Created with bin/sketchtool.</desc>
    <defs></defs>
    <g id="Nouns" stroke="none" stroke-width="1" fill="none" fill-rule="evenodd" sketch:type="MSPage">
        <g id="water" sketch:type="MSArtboardGroup" fill="#1A1918">
            <g id="Imported-Layers" sketch:type="MSLayerGroup" transform="translate(89.000000, 112.000000)">
                <path d="M384.614173,270.178051 L303.672441,270.178051 C295.533858,270.178051 288.916535,263.566632 288.916535,255.439179 L288.916535,218.598291 C288.916535,210.643829 295.259843,204.13935 303.165354,203.872 L303.165354,192.574085 L259.127559,192.574085 C250.233071,209.351111 232.866142,219.947624 213.618898,219.947624 L145.379528,219.947624 C126.122835,219.947624 108.752756,209.351111 99.8645669,192.574085 L72.9448819,192.693607 C72.9448819,200.830496 66.3275591,207.44506 58.1889764,207.44506 L14.8188976,207.44506 C6.68031496,207.44506 0.062992126,200.830496 0.062992126,192.693607 L0.062992126,114.470017 C0.062992126,106.342564 6.68031496,99.7311453 14.8188976,99.7311453 L58.1889764,99.7311453 C66.3275591,99.7311453 72.9448819,106.342564 72.9448819,114.470017 L72.9448819,114.60212 L95.1181102,114.60212 C100.349606,91.3394872 120.907087,74.5184274 145.379528,74.5184274 L150.617323,74.5184274 L150.617323,54.957812 L90.8566929,61.3710769 C90.384252,61.4182564 89.9086614,61.4465641 89.4362205,61.4465641 C82.3653543,61.4465641 76.8283465,55.8856752 76.8283465,48.7835897 L76.8283465,22.2498462 C76.8283465,14.72 82.9606299,8.85716239 90.696063,9.51138462 L154.585827,14.8929915 C159.666142,6.08615385 169.083465,0.474940171 179.508661,0.474940171 C189.930709,0.474940171 199.338583,6.08615385 204.418898,14.8929915 L268.296063,9.52396581 C275.933858,8.93579487 282.176378,14.7262906 282.173228,22.2624274 L282.173228,48.7835897 C282.173228,56.3574701 275.902362,62.2297436 268.132283,61.3679316 L208.390551,54.957812 L208.390551,74.5184274 L213.631496,74.5184274 C238.100787,74.5184274 258.648819,91.3394872 263.880315,114.60212 L348.091339,114.60212 C368.513386,114.60212 385.124409,132.093128 385.124409,153.591248 C385.124409,153.92465 385.111811,154.251761 385.089764,154.582017 C385.111811,154.937436 385.124409,155.233094 385.124409,155.531897 L385.124409,203.872 C393.026772,204.13935 399.370079,210.643829 399.370079,218.598291 L399.370079,255.439179 C399.370079,263.566632 392.749606,270.178051 384.614173,270.178051 L384.614173,270.178051 Z M303.672441,218.441026 L303.511811,255.439179 L384.614173,255.602735 C384.696063,255.602735 384.771654,255.520957 384.771654,255.439179 L384.771654,218.598291 L377.826772,218.441026 C373.795276,218.441026 370.529134,215.17935 370.529134,211.153368 L370.48189,154.890256 C370.472441,154.704684 370.472441,154.522256 370.47874,154.339829 L370.519685,153.66359 C370.529134,140.132513 360.462992,129.180581 348.091339,129.180581 L257.662992,129.180581 C253.896063,129.180581 250.746457,126.321504 250.393701,122.578598 C248.592126,103.489778 232.784252,89.0968889 213.631496,89.0968889 L201.092913,89.0968889 C197.058268,89.0968889 193.792126,85.8352137 193.792126,81.8092308 L193.792126,46.8429402 C193.792126,44.770188 194.674016,42.8012308 196.214173,41.4172991 C197.754331,40.0333675 199.795276,39.376 201.874016,39.5930256 L267.574803,46.6447863 L267.574803,24.2125128 L200.522835,29.8520342 C197.127559,30.1382564 194.040945,28.0749402 192.979528,24.8793162 C191.033071,19.0038974 185.622047,15.0534017 179.508661,15.0534017 C173.392126,15.0534017 167.971654,19.0038974 166.025197,24.8793162 C164.96378,28.0749402 161.864567,30.1382564 158.48189,29.8520342 L91.423622,24.2030769 L91.423622,46.6542222 L157.137008,39.5930256 C159.209449,39.3791453 161.253543,40.0365128 162.793701,41.4172991 C164.337008,42.8012308 165.215748,44.770188 165.215748,46.8429402 L165.215748,81.8092308 C165.215748,85.8352137 161.949606,89.0968889 157.91811,89.0968889 L145.379528,89.0968889 C126.217323,89.0968889 110.409449,103.489778 108.604724,122.578598 C108.251969,126.321504 105.102362,129.180581 101.338583,129.180581 L65.6472441,129.180581 C61.615748,129.180581 58.3464567,125.918906 58.3464567,121.892923 L58.3464567,114.470017 L14.8188976,114.309607 L14.6582677,192.693607 L58.1889764,192.866598 L58.3464567,185.283282 C58.3464567,181.257299 61.615748,177.995624 65.6472441,177.995624 L104.494488,177.995624 C107.448819,177.995624 110.113386,179.772718 111.240945,182.499692 C116.985827,196.392479 130.381102,205.369162 145.379528,205.369162 L213.618898,205.369162 C228.607874,205.369162 242.006299,196.389333 247.75748,182.499692 C248.885039,179.772718 251.546457,177.995624 254.503937,177.995624 L310.462992,177.995624 C314.494488,177.995624 317.76378,181.257299 317.76378,185.283282 L317.76378,211.153368 C317.76378,215.17935 314.494488,218.441026 310.462992,218.441026 L303.672441,218.441026 L303.672441,218.441026 Z" id="Fill-1" sketch:type="MSShapeGroup"></path>
                <path d="M344.148031,365.581265 C325.496063,365.581265 310.31811,350.424068 310.31811,331.791316 C310.31811,315.788034 333.407874,279.755487 338.037795,272.694291 C339.388976,270.637265 341.68189,269.398017 344.148031,269.398017 C346.607874,269.398017 348.903937,270.637265 350.251969,272.694291 C354.885039,279.755487 377.987402,315.794325 377.987402,331.791316 C377.987402,350.424068 362.806299,365.581265 344.148031,365.581265 L344.148031,365.581265 Z M344.148031,290.392889 C334.79685,305.845744 324.916535,324.780444 324.916535,331.791316 C324.916535,342.384684 333.543307,351.005949 344.148031,351.005949 C354.755906,351.005949 363.388976,342.384684 363.388976,331.791316 C363.388976,324.78359 353.502362,305.845744 344.148031,290.392889 L344.148031,290.392889 Z" id="Fill-2" sketch:type="MSShapeGroup"></path>
            </g>
        </g>
    </g>
</svg>