<svg width="560" height="560" viewBox="0 0 560 560" xmlns="http://www.w3.org/2000/svg"><title>electricity</title><desc>Created with bin/sketchtool.</desc><path d="M207.93 480c-4.068 0-7.8-1.806-10.233-4.957-1.548-2-3.88-6.323-2.142-12.832.034-.126.072-.255.11-.384L242.78 308.78h-58.315c-6.48 0-11.964-2.815-15.047-7.723-3.084-4.91-3.225-11.047-.38-16.837l77.337-157.122c4.327-8.756 14.56-15.098 24.34-15.098h97.675c6.747 0 12.242 2.955 15.073 8.104 2.83 5.15 2.365 11.342-1.274 16.984l-45.98 71.316h56.273c6.845 0 12.48 3.13 15.075 8.367 2.59 5.24 1.646 11.59-2.53 16.984L220.22 473.66c-.057.074-.115.145-.175.218-3.16 3.89-7.576 6.122-12.116 6.122zm39.315-192.77c6.13 0 11.602 2.623 15.015 7.197 3.41 4.568 4.347 10.527 2.57 16.35L229.185 426.58l151.47-196.625H326.54c-6.748 0-12.24-2.955-15.072-8.108-2.83-5.15-2.363-11.336 1.28-16.978l45.975-71.32h-88.008c-1.452 0-4.234 1.73-4.88 3.033L191.688 287.23h55.558z" fill="#1A1918" fill-rule="evenodd"/></svg>