<svg width="560" height="560" viewBox="0 0 560 560" xmlns="http://www.w3.org/2000/svg"><title>meter</title><desc>Created with bin/sketchtool.</desc><g fill="#000"><path d="M288.404 479.703c-101.285 0-183.69-82.432-183.69-183.758 0-101.32 82.405-183.75 183.69-183.75s183.69 82.43 183.69 183.75c0 101.326-82.405 183.758-183.69 183.758zM118.1 295.945c0 93.943 76.396 170.37 170.304 170.37s170.306-76.427 170.306-170.37c0-93.937-76.398-170.36-170.306-170.36-93.908 0-170.304 76.423-170.304 170.36zM182.623 298.473c-18.07 0-32.767-14.7-32.767-32.782 0-18.08 14.697-32.79 32.767-32.79 18.072 0 32.778 14.71 32.778 32.79 0 18.084-14.704 32.784-32.776 32.784zm-24.327-32.782c0 13.42 10.915 24.34 24.327 24.34 13.415 0 24.332-10.92 24.332-24.34 0-13.427-10.917-24.342-24.332-24.342-13.412 0-24.327 10.915-24.327 24.344zM253.145 298.473c-18.07 0-32.775-14.7-32.775-32.782 0-18.08 14.706-32.79 32.775-32.79 18.073 0 32.773 14.71 32.773 32.79 0 18.084-14.7 32.784-32.773 32.784zm0-57.126c-13.417 0-24.332 10.915-24.332 24.344 0 13.42 10.915 24.34 24.332 24.34 13.418 0 24.333-10.92 24.333-24.34 0-13.427-10.915-24.342-24.333-24.342zM323.67 298.473c-18.07 0-32.774-14.7-32.774-32.782 0-18.08 14.705-32.79 32.775-32.79 18.068 0 32.768 14.71 32.768 32.79 0 18.084-14.7 32.784-32.766 32.784zm0-57.126c-13.414 0-24.334 10.915-24.334 24.344 0 13.42 10.92 24.34 24.335 24.34 13.414 0 24.33-10.92 24.33-24.34 0-13.427-10.916-24.342-24.33-24.342zM394.182 298.473c-18.067 0-32.767-14.7-32.767-32.782 0-18.08 14.7-32.79 32.767-32.79 18.072 0 32.772 14.71 32.772 32.79 0 18.084-14.7 32.784-32.772 32.784zm0-57.126c-13.415 0-24.327 10.915-24.327 24.344 0 13.42 10.912 24.34 24.327 24.34 13.418 0 24.33-10.92 24.33-24.34 0-13.427-10.912-24.342-24.33-24.342zM366.66 368.15H210.15c-5.053 0-9.154-4.103-9.154-9.158 0-5.057 4.1-9.156 9.154-9.156h156.51c5.055 0 9.152 4.1 9.152 9.156 0 5.055-4.097 9.157-9.153 9.157"/></g></svg>