<svg width="560" height="560" viewBox="0 0 560 560" xmlns="http://www.w3.org/2000/svg"><title>meterGas</title><desc>Created with bin/sketchtool.</desc><g fill="#1A1918"><path d="M230.773 215.195c-8.64 0-15.625 6.98-15.625 15.57 0 8.58 6.985 15.557 15.625 15.557 8.63 0 15.626-6.976 15.626-15.558 0-8.59-6.996-15.57-15.627-15.57zM25.74 8.95c-1.007.703-2.408.468-3.127-.51-.737-1.015-.52-2.397.495-3.117 1.006-.73 8.387-3.285 8.387-3.285s-4.76 6.183-5.756 6.912z"/><path d="M263.95 215.195c-8.605 0-15.63 6.98-15.63 15.57 0 8.58 7.025 15.557 15.63 15.557 8.658 0 15.648-6.976 15.648-15.558 0-8.59-6.99-15.57-15.648-15.57zM59.446 8.535c-.87.872-2.298.85-3.162-.027-.87-.884-4.51-7.79-4.51-7.79s6.844 3.785 7.717 4.67c.854.868.842 2.29-.044 3.146z"/><path d="M296.838 215.195c-8.61 0-15.617 6.98-15.617 15.57 0 8.58 7.01 15.557 15.618 15.557 8.646 0 15.643-6.976 15.643-15.558 0-8.59-6.996-15.57-15.642-15.57zM92.02 8.932c-1.078.575-2.444.133-3.02-.963-.565-1.09-2.026-8.752-2.026-8.752s5.434 5.6 6.015 6.702c.57 1.087.137 2.433-.97 3.012z"/><path d="M329.808 215.195c-8.623 0-15.64 6.98-15.64 15.57 0 8.58 7.017 15.557 15.64 15.557 8.628 0 15.616-6.976 15.616-15.558 0-8.59-6.988-15.57-15.616-15.57zM126.015 6.935c-.205 1.224-1.364 2.044-2.576 1.847-1.225-.192-2.044-1.362-1.848-2.584.202-1.21 3.64-8.204 3.64-8.204s.998 7.73.783 8.942z"/><path d="M128.126 426.87c0 29.526 24.048 53.467 53.72 53.467h196.972c29.668 0 53.716-23.94 53.716-53.468v-94.006H128.126v94.005"/><path d="M432.534 203.025c0-28.536-22.45-51.846-50.73-53.388V111.7h-52.227v37.85H231.09V111.7h-52.23v37.937c-28.28 1.542-50.734 24.852-50.734 53.388v99.835h-25.37v24.167h25.37l304.408-.1 25.372.1V302.86h-25.372v-99.835zM-28.914-.215c2.274-3.712 7.108-4.875 10.816-2.607 3.717 2.248 4.888 7.066 2.625 10.768-2.267 3.7-7.12 4.854-10.83 2.61-3.712-2.25-4.87-7.072-2.61-10.772zm5.314 66.42c-.71.112-1.437.212-2.178.212-.953 0-1.87-.1-2.758-.268-6.617-1.29-11.627-7.07-11.627-14.036 0-2.94.875-5.652 2.407-7.944.942-1.412 2.172-2.608 3.542-3.62 2.378-1.71 5.276-2.767 8.436-2.767 7.94 0 14.39 6.414 14.39 14.33 0 7.162-5.3 13.037-12.212 14.09zm169.64-1.227H105.62S92.205 160.595 92.205 131.3c0-31.81 13.415-45.672 13.415-45.672h143.42s13.415 18.9 13.415 45.673c0 28.035-13.414 45.678-13.414 45.678zm34.688-12.475c-.06 1.27-.32 2.537-1.03 3.69-.582.94-1.333 1.7-2.183 2.306-2.498 1.74-5.89 1.98-8.636.29-3.725-2.238-4.893-7.087-2.62-10.77 2.255-3.695 7.113-4.87 10.822-2.605 2.562 1.554 3.795 4.334 3.646 7.088zm5.396-54.19c-.673 1.54-1.626 2.92-2.767 4.11-2.603 2.723-6.293 4.45-10.38 4.45-7.948 0-14.396-6.402-14.396-14.32 0-6.725 4.68-12.325 10.968-13.866 1.1-.267 2.242-.462 3.43-.462.533 0 1.015.1 1.532.162 5.68.594 10.335 4.444 12.07 9.68.467 1.413.785 2.907.785 4.487 0 2.054-.446 3.992-1.24 5.758z"/><path d="M242.014 262.006h75.168v11.137h-75.168v-11.137z"/></g></svg>