<svg width="560" height="560" viewBox="0 0 560 560" xmlns="http://www.w3.org/2000/svg"><title>settings</title><desc>Created with bin/sketchtool.</desc><path d="M417.805 313.857c.74-5.86 1.293-11.813 1.293-17.857 0-6.044-.554-11.996-1.293-17.857l39.084-30.31c3.51-2.748 4.527-7.693 2.217-11.722l-36.96-63.46c-2.31-3.938-7.114-5.586-11.272-3.938l-46.015 18.406c-9.517-7.234-19.958-13.37-31.23-18.04l-6.93-48.534c-.832-4.304-4.62-7.692-9.24-7.692h-73.92c-4.62 0-8.408 3.388-9.147 7.692l-6.93 48.534c-11.273 4.67-21.714 10.714-31.23 18.04l-46.015-18.406c-4.158-1.557-8.963 0-11.273 3.938l-36.96 63.46c-2.31 3.938-1.293 8.883 2.218 11.722l38.992 30.31c-.74 5.862-1.293 11.814-1.293 17.858 0 6.044.554 11.996 1.293 17.857l-38.992 30.31c-3.51 2.748-4.527 7.693-2.217 11.722l36.96 63.46c2.31 3.938 7.114 5.586 11.272 3.938l46.014-18.406c9.517 7.234 19.958 13.37 31.23 18.04l6.93 48.534c.74 4.304 4.53 7.692 9.148 7.692h73.92c4.62 0 8.408-3.388 9.147-7.692l6.93-48.534c11.273-4.67 21.714-10.715 31.23-18.04l46.015 18.406c4.158 1.557 8.963 0 11.273-3.938l36.96-63.46c2.31-3.938 1.293-8.883-2.218-11.722l-38.992-30.31zM80.5 136.102c-35.758 0-64.68-28.663-64.68-64.102 0-35.44 28.922-64.102 64.68-64.102 35.758 0 64.68 28.663 64.68 64.102 0 35.44-28.922 64.102-64.68 64.102z" fill="#000"/></svg>