<svg width="560" height="560" viewBox="0 0 560 560" xmlns="http://www.w3.org/2000/svg"><title>water</title><desc>Created with bin/sketchtool.</desc><g fill="#1A1918"><path d="M473.614 382.178h-80.942c-8.138 0-14.755-6.61-14.755-14.74V330.6c0-7.954 6.343-14.46 14.248-14.726v-11.298h-44.037c-8.895 16.777-26.262 27.374-45.51 27.374H234.38c-19.257 0-36.627-10.597-45.515-27.374l-26.92.12c0 8.136-6.617 14.75-14.756 14.75h-43.37c-8.14 0-14.758-6.614-14.758-14.75V226.47c0-8.127 6.617-14.74 14.756-14.74h43.37c8.138 0 14.755 6.613 14.755 14.74v.132h22.173c5.232-23.263 25.79-40.084 50.262-40.084h5.237v-19.56l-59.76 6.413c-.473.05-.948.078-1.42.078-7.072 0-12.61-5.56-12.61-12.663V134.25c0-7.53 6.134-13.393 13.87-12.74l63.89 5.383c5.08-8.807 14.496-14.418 24.922-14.418 10.42 0 19.83 5.61 24.91 14.418l63.876-5.37c7.638-.587 13.88 5.203 13.877 12.74v26.52c0 7.574-6.27 13.447-14.04 12.585l-59.742-6.41v19.56h5.24c24.47 0 45.02 16.82 50.25 40.084h84.21c20.423 0 37.034 17.49 37.034 38.99 0 .333-.012.66-.034.99.022.355.034.65.034.95v48.34c7.903.267 14.246 6.772 14.246 14.726v36.84c0 8.13-6.62 14.74-14.756 14.74zm-80.942-51.737l-.16 37 81.102.164c.082 0 .158-.082.158-.164v-36.842l-6.945-.157c-4.032 0-7.298-3.26-7.298-7.286l-.05-56.263c-.01-.184-.01-.367-.002-.55l.04-.675c.01-13.53-10.057-24.483-22.43-24.483H346.66c-3.766 0-6.916-2.858-7.27-6.6-1.8-19.09-17.61-33.483-36.76-33.483H290.09c-4.035 0-7.3-3.263-7.3-7.29v-34.966c0-2.073.88-4.042 2.42-5.426 1.54-1.384 3.582-2.04 5.66-1.824l65.702 7.052v-22.432l-67.052 5.64c-3.395.285-6.482-1.778-7.543-4.974-1.948-5.876-7.36-9.827-13.47-9.827-6.12 0-11.54 3.95-13.486 9.826-1.06 3.194-4.16 5.257-7.543 4.97l-67.057-5.65v22.453l65.713-7.06c2.072-.215 4.117.443 5.657 1.823 1.543 1.384 2.422 3.353 2.422 5.426v34.966c0 4.025-3.266 7.287-7.298 7.287H234.38c-19.163 0-34.97 14.393-36.775 33.482-.353 3.742-3.503 6.6-7.266 6.6h-35.694c-4.03 0-7.3-3.26-7.3-7.287v-7.423l-43.528-.16-.162 78.384 43.53.174.158-7.584c0-4.026 3.27-7.287 7.3-7.287h38.848c2.955 0 5.62 1.777 6.747 4.504 5.745 13.892 19.14 22.87 34.14 22.87h68.24c14.987 0 28.385-8.98 34.136-22.87 1.128-2.727 3.79-4.504 6.747-4.504h55.96c4.03 0 7.3 3.26 7.3 7.287v25.87c0 4.026-3.27 7.288-7.3 7.288h-6.792zM433.148 477.58c-18.652 0-33.83-15.156-33.83-33.79 0-16.002 23.09-52.035 27.72-59.096 1.35-2.057 3.644-3.296 6.11-3.296 2.46 0 4.756 1.24 6.104 3.296 4.633 7.06 27.735 43.1 27.735 59.097 0 18.635-15.18 33.79-33.84 33.79zm0-75.187c-9.35 15.453-19.23 34.387-19.23 41.398 0 10.596 8.625 19.217 19.23 19.217 10.608 0 19.24-8.62 19.24-19.215 0-7.006-9.886-25.944-19.24-41.397z"/></g></svg>